<svg xmlns="http://www.w3.org/2000/svg" viewBox="0 0 520 252" width="520" height="252">
  <style>text { font-family: -apple-system, BlinkMacSystemFont, 'Segoe UI', Roboto, sans-serif; }</style>
  <rect width="100%" height="100%" fill="#ffffff" rx="8"/>
  <rect x="162" y="8" width="268" height="22" fill="#ffffff" rx="4"/><rect x="162" y="8" width="268.0" height="22" fill="#0969da" rx="4" opacity="0.85"/><text x="154" y="23" text-anchor="end" font-size="11" fill="#1f2328">demo-app-starter</text><text x="438" y="23" font-size="10" fill="#1f2328">8.3k <tspan fill="#6e7781">21%</tspan></text><rect x="162" y="38" width="268" height="22" fill="#ffffff" rx="4"/><rect x="162" y="38" width="252.3" height="22" fill="#0969da" rx="4" opacity="0.85"/><text x="154" y="53" text-anchor="end" font-size="11" fill="#1f2328">demo-product-dashboard</text><text x="438" y="53" font-size="10" fill="#1f2328">7.8k <tspan fill="#6e7781">19%</tspan></text><rect x="162" y="68" width="268" height="22" fill="#ffffff" rx="4"/><rect x="162" y="68" width="200.9" height="22" fill="#0969da" rx="4" opacity="0.85"/><text x="154" y="83" text-anchor="end" font-size="11" fill="#1f2328">demo-docs</text><text x="438" y="83" font-size="10" fill="#1f2328">6.2k <tspan fill="#6e7781">15%</tspan></text><rect x="162" y="98" width="268" height="22" fill="#ffffff" rx="4"/><rect x="162" y="98" width="170.5" height="22" fill="#0969da" rx="4" opacity="0.85"/><text x="154" y="113" text-anchor="end" font-size="11" fill="#1f2328">demo-examples</text><text x="438" y="113" font-size="10" fill="#1f2328">5.3k <tspan fill="#6e7781">13%</tspan></text><rect x="162" y="128" width="268" height="22" fill="#ffffff" rx="4"/><rect x="162" y="128" width="114.9" height="22" fill="#0969da" rx="4" opacity="0.85"/><text x="154" y="143" text-anchor="end" font-size="11" fill="#1f2328">demo-api</text><text x="438" y="143" font-size="10" fill="#1f2328">3.6k <tspan fill="#6e7781">9%</tspan></text><rect x="162" y="158" width="268" height="22" fill="#ffffff" rx="4"/><rect x="162" y="158" width="106.4" height="22" fill="#0969da" rx="4" opacity="0.85"/><text x="154" y="173" text-anchor="end" font-size="11" fill="#1f2328">demo-sdk-js</text><text x="438" y="173" font-size="10" fill="#1f2328">3.3k <tspan fill="#6e7781">8%</tspan></text><rect x="162" y="188" width="268" height="22" fill="#ffffff" rx="4"/><rect x="162" y="188" width="98.8" height="22" fill="#0969da" rx="4" opacity="0.85"/><text x="154" y="203" text-anchor="end" font-size="11" fill="#1f2328">demo-cli</text><text x="438" y="203" font-size="10" fill="#1f2328">3.1k <tspan fill="#6e7781">8%</tspan></text><rect x="162" y="218" width="268" height="22" fill="#ffffff" rx="4"/><rect x="162" y="218" width="95.1" height="22" fill="#0969da" rx="4" opacity="0.85"/><text x="154" y="233" text-anchor="end" font-size="11" fill="#1f2328">demo-sdk-python</text><text x="438" y="233" font-size="10" fill="#1f2328">3.0k <tspan fill="#6e7781">7%</tspan></text>
</svg>