<svg xmlns="http://www.w3.org/2000/svg" viewBox="0 0 412 180" width="412" height="180">
  <style>text { font-family: -apple-system, BlinkMacSystemFont, 'Segoe UI', Roboto, sans-serif; }</style>
  <rect width="100%" height="100%" fill="#0a0e14" rx="8"/>
  <path d="M 90.0 12.0 A 78 78 0 0 1 167.9 85.5 L 132.8 87.5 A 42.900000000000006 42.900000000000006 0 0 0 90.0 47.1 Z" fill="#58a6ff" opacity="0"><animate attributeName="opacity" values="0;0.9;0.9;0" keyTimes="0;0.030;0.92;1" dur="12s" repeatCount="indefinite"/><title>reponomics-demo/demo-app-starter: 8,310 (24.1%)</title></path><path d="M 167.9 85.5 A 78 78 0 0 1 105.8 166.4 L 98.7 132.0 A 42.900000000000006 42.900000000000006 0 0 0 132.8 87.5 Z" fill="#3fb950" opacity="0"><animate attributeName="opacity" values="0;0.9;0.9;0" keyTimes="0;0.037;0.92;1" dur="12s" repeatCount="indefinite"/><title>reponomics-demo/demo-product-dashboard: 7,824 (22.7%)</title></path><path d="M 105.8 166.4 A 78 78 0 0 1 27.5 136.7 L 55.6 115.7 A 42.900000000000006 42.900000000000006 0 0 0 98.7 132.0 Z" fill="#CC79A7" opacity="0"><animate attributeName="opacity" values="0;0.9;0.9;0" keyTimes="0;0.043;0.92;1" dur="12s" repeatCount="indefinite"/><title>reponomics-demo/demo-docs: 6,228 (18.0%)</title></path><path d="M 27.5 136.7 A 78 78 0 0 1 16.0 65.4 L 49.3 76.5 A 42.900000000000006 42.900000000000006 0 0 0 55.6 115.7 Z" fill="#ffa657" opacity="0"><animate attributeName="opacity" values="0;0.9;0.9;0" keyTimes="0;0.050;0.92;1" dur="12s" repeatCount="indefinite"/><title>reponomics-demo/demo-examples: 5,287 (15.3%)</title></path><path d="M 16.0 65.4 A 78 78 0 0 1 45.9 25.7 L 65.7 54.6 A 42.900000000000006 42.900000000000006 0 0 0 49.3 76.5 Z" fill="#f85149" opacity="0"><animate attributeName="opacity" values="0;0.9;0.9;0" keyTimes="0;0.057;0.92;1" dur="12s" repeatCount="indefinite"/><title>reponomics-demo/demo-api: 3,564 (10.3%)</title></path><path d="M 45.9 25.7 A 78 78 0 0 1 90.0 12.0 L 90.0 47.1 A 42.900000000000006 42.900000000000006 0 0 0 65.7 54.6 Z" fill="#1f6feb" opacity="0"><animate attributeName="opacity" values="0;0.9;0.9;0" keyTimes="0;0.063;0.92;1" dur="12s" repeatCount="indefinite"/><title>reponomics-demo/demo-sdk-js: 3,300 (9.6%)</title></path>
  <text x="90" y="88" text-anchor="middle" font-size="18" font-weight="700" fill="#e6edf3">34.5k</text><text x="90" y="104" text-anchor="middle" font-size="9" fill="#6e7681">total views</text>
  <circle cx="202" cy="14" r="5" fill="#58a6ff"/><text x="214" y="18" font-size="10" fill="#e6edf3" font-weight="600" font-variant-numeric="tabular-nums">24.1%</text><text x="252" y="18" font-size="11" fill="#8b949e">demo-app-starter</text><circle cx="202" cy="36" r="5" fill="#3fb950"/><text x="214" y="40" font-size="10" fill="#e6edf3" font-weight="600" font-variant-numeric="tabular-nums">22.7%</text><text x="252" y="40" font-size="11" fill="#8b949e">demo-product-dashboard</text><circle cx="202" cy="58" r="5" fill="#CC79A7"/><text x="214" y="62" font-size="10" fill="#e6edf3" font-weight="600" font-variant-numeric="tabular-nums">18.0%</text><text x="252" y="62" font-size="11" fill="#8b949e">demo-docs</text><circle cx="202" cy="80" r="5" fill="#ffa657"/><text x="214" y="84" font-size="10" fill="#e6edf3" font-weight="600" font-variant-numeric="tabular-nums">15.3%</text><text x="252" y="84" font-size="11" fill="#8b949e">demo-examples</text><circle cx="202" cy="102" r="5" fill="#f85149"/><text x="214" y="106" font-size="10" fill="#e6edf3" font-weight="600" font-variant-numeric="tabular-nums">10.3%</text><text x="252" y="106" font-size="11" fill="#8b949e">demo-api</text><circle cx="202" cy="124" r="5" fill="#1f6feb"/><text x="214" y="128" font-size="10" fill="#e6edf3" font-weight="600" font-variant-numeric="tabular-nums">9.6%</text><text x="252" y="128" font-size="11" fill="#8b949e">demo-sdk-js</text>
</svg>