<svg xmlns="http://www.w3.org/2000/svg" viewBox="0 0 520 100" width="520" height="100">
  <style>text { font-family: -apple-system, BlinkMacSystemFont, 'Segoe UI', Roboto, sans-serif; }</style>
  <defs>
    <linearGradient id="sparkFill" x1="0" y1="0" x2="0" y2="1">
      <stop offset="0%" stop-color="#58a6ff" stop-opacity="0.25"/>
      <stop offset="100%" stop-color="#58a6ff" stop-opacity="0.02"/>
    </linearGradient>
  </defs>
  <rect width="100%" height="100%" fill="#0a0e14" rx="8"/>
  <line x1="8" y1="65.5" x2="512" y2="65.5" stroke="#21262d" stroke-width="1"/><line x1="8" y1="51.0" x2="512" y2="51.0" stroke="#21262d" stroke-width="1"/><line x1="8" y1="36.5" x2="512" y2="36.5" stroke="#21262d" stroke-width="1"/>
  <polygon points="8,80 8.0,30.7 25.4,26.7 42.8,69.3 60.1,66.8 77.5,22.0 94.9,43.4 112.3,31.2 129.7,31.2 147.0,37.7 164.4,79.8 181.8,80.0 199.2,39.2 216.6,39.7 233.9,37.9 251.3,38.7 268.7,37.2 286.1,78.8 303.4,77.8 320.8,37.2 338.2,36.2 355.6,40.2 373.0,35.4 390.3,52.4 407.7,79.0 425.1,76.3 442.5,37.9 459.9,36.4 477.2,36.7 494.6,35.9 512.0,36.2 512,80" fill="url(#sparkFill)" />
  <polyline points="8.0,30.7 25.4,26.7 42.8,69.3 60.1,66.8 77.5,22.0 94.9,43.4 112.3,31.2 129.7,31.2 147.0,37.7 164.4,79.8 181.8,80.0 199.2,39.2 216.6,39.7 233.9,37.9 251.3,38.7 268.7,37.2 286.1,78.8 303.4,77.8 320.8,37.2 338.2,36.2 355.6,40.2 373.0,35.4 390.3,52.4 407.7,79.0 425.1,76.3 442.5,37.9 459.9,36.4 477.2,36.7 494.6,35.9 512.0,36.2" fill="none" stroke="#58a6ff" stroke-width="2" stroke-linecap="round" stroke-linejoin="round" stroke-dasharray="2000" stroke-dashoffset="2000"><animate attributeName="stroke-dashoffset" values="2000;0;0;2000" keyTimes="0;0.1;0.92;1" dur="12s" repeatCount="indefinite" calcMode="spline" keySplines="0.4 0 0.2 1;0.4 0 0.2 1;0.4 0 0.2 1"/></polyline>
  <circle cx="77.5" cy="22.0" r="3" fill="#58a6ff" opacity="0"><animate attributeName="opacity" values="0;0;1;1;0" keyTimes="0;0.08;0.1;0.92;1" dur="12s" repeatCount="indefinite"/></circle><text x="77.5" y="14.0" text-anchor="middle" font-size="10" fill="#e6edf3" font-weight="600" opacity="0">572<animate attributeName="opacity" values="0;0;1;1;0" keyTimes="0;0.09;0.11;0.92;1" dur="12s" repeatCount="indefinite"/></text>
  <circle cx="512.0" cy="36.2" r="2.5" fill="#8b949e"/><text x="506.0" y="29.2" text-anchor="end" font-size="9" fill="#8b949e">515</text>
  <text x="8" y="96" font-size="9" fill="#6e7681">2026-06-25</text><text x="512" y="96" text-anchor="end" font-size="9" fill="#6e7681">2026-07-24</text>
</svg>